<svg width="44" height="44" viewBox="0 0 44 44" fill="none" xmlns="http://www.w3.org/2000/svg">
    <circle cx="22" cy="22" r="22" fill="#232323"/>
    <path d="M22 18.75C20.2051 18.75 18.75 20.2051 18.75 22C18.75 23.795 20.2051 25.25 22 25.25C23.7949 25.25 25.25 23.795 25.25 22C25.25 20.2051 23.7949 18.75 22 18.75Z" fill="#C66F2B"/>
    <path fill-rule="evenodd" clip-rule="evenodd" d="M16.7695 13.0815C20.2177 12.6961 23.7824 12.6961 27.2305 13.0815C29.1289 13.2937 30.6601 14.7895 30.8829 16.6945C31.2952 20.2195 31.2952 23.7806 30.8829 27.3056C30.6601 29.2106 29.1289 30.7064 27.2305 30.9186C23.7824 31.304 20.2177 31.304 16.7695 30.9186C14.8711 30.7064 13.3399 29.2106 13.1171 27.3056C12.7049 23.7806 12.7049 20.2195 13.1171 16.6945C13.3399 14.7895 14.8711 13.2937 16.7695 13.0815ZM27 16C26.4477 16 26 16.4478 26 17C26 17.5523 26.4477 18 27 18C27.5523 18 28 17.5523 28 17C28 16.4478 27.5523 16 27 16ZM17.25 22C17.25 19.3767 19.3766 17.25 22 17.25C24.6234 17.25 26.75 19.3767 26.75 22C26.75 24.6234 24.6234 26.75 22 26.75C19.3766 26.75 17.25 24.6234 17.25 22Z" fill="#C66F2B"/>
</svg>
