<svg xmlns="http://www.w3.org/2000/svg" width="44" height="44" viewBox="0 0 44 44" fill="none">
    <circle cx="22" cy="22" r="22" fill="#232323"/>
    <path d="M31.5035 28.381H29.222C28.3588 28.381 28.0992 27.682 26.5511 26.1339C25.2 24.8313 24.6292 24.6686 24.2868 24.6686C23.8145 24.6686 23.6847 24.7984 23.6847 25.4505V27.5021C23.6847 28.0573 23.5049 28.3825 22.0553 28.3825C20.6485 28.288 19.2842 27.8606 18.0749 27.1355C16.8656 26.4104 15.8459 25.4084 15.0997 24.212C13.3283 22.0071 12.0957 19.4193 11.5 16.6544C11.5 16.312 11.6298 16.0023 12.2819 16.0023H14.5618C15.1482 16.0023 15.3593 16.2635 15.5892 16.8655C16.6963 20.1244 18.5853 22.9579 19.3516 22.9579C19.6456 22.9579 19.7738 22.8281 19.7738 22.0947V18.7389C19.6768 17.208 18.8637 17.0782 18.8637 16.5246C18.8741 16.3786 18.941 16.2424 19.0502 16.1449C19.1594 16.0474 19.3023 15.9963 19.4485 16.0023H23.0326C23.5221 16.0023 23.6847 16.2463 23.6847 16.8327V21.3613C23.6847 21.8508 23.8958 22.0134 24.0428 22.0134C24.3368 22.0134 24.5635 21.8508 25.1015 21.3128C26.2569 19.9038 27.2009 18.334 27.9037 16.6529C27.9756 16.4509 28.1115 16.278 28.2908 16.1606C28.4701 16.0431 28.6829 15.9876 28.8967 16.0023H31.1782C31.8616 16.0023 32.007 16.3448 31.8616 16.8327C31.032 18.6911 30.0055 20.4552 28.7997 22.0947C28.5542 22.47 28.4557 22.6655 28.7997 23.1049C29.0265 23.4473 29.8256 24.1151 30.3635 24.7499C31.1452 25.5297 31.7944 26.4319 32.2853 27.4208C32.4808 28.0557 32.154 28.381 31.5035 28.381Z" fill="#C66F2B"/>
</svg>
