<svg xmlns="http://www.w3.org/2000/svg" width="44" height="44" viewBox="0 0 46 46" fill="none">
    <circle cx="22.7634" cy="22.7634" r="22.7634" fill="#232323"/>
    <path fill-rule="evenodd" clip-rule="evenodd" d="M17.6772 15.3791C21.0629 15.108 24.464 15.108 27.8496 15.3791L30.1238 15.5612C31.3906 15.6626 32.4269 16.6342 32.6363 17.9167C33.1603 21.1257 33.1603 24.4015 32.6363 27.6105C32.4269 28.893 31.3906 29.8646 30.1238 29.966L27.8496 30.1481C24.464 30.4192 21.0628 30.4192 17.6772 30.1481L15.403 29.966C14.1362 29.8646 13.0999 28.893 12.8905 27.6105C12.3666 24.4015 12.3666 21.1257 12.8905 17.9167C13.0999 16.6342 14.1362 15.6626 15.403 15.5612L17.6772 15.3791ZM20.7334 25.3293V20.1979C20.7334 19.9557 20.9916 19.8061 21.1946 19.9307L25.3731 22.4964C25.5702 22.6174 25.5702 22.9098 25.3731 23.0308L21.1946 25.5965C20.9916 25.7211 20.7334 25.5715 20.7334 25.3293Z" fill="#C66F2B"/>
</svg>
