<svg width="40" height="40" viewBox="0 0 42 41" fill="none" xmlns="http://www.w3.org/2000/svg">
<path fill-rule="evenodd" clip-rule="evenodd" d="M1.33486 0.175514C1.24845 0.210954 1.10705 0.318453 1.02064 0.414558C0.86439 0.588221 0.863525 0.699886 0.863525 20.2244V39.8597L1.08136 40.0775L1.29912 40.2954L12.4154 40.3158C22.4087 40.3342 23.5558 40.3238 23.7711 40.2124C24.1622 40.0101 24.2339 39.713 24.2339 38.2941V37.0343H29.1436H34.0534V38.2941C34.0534 40.3463 34.0405 40.3349 36.3472 40.3344C38.624 40.334 38.6084 40.3485 38.6091 38.2327L38.6096 37.0343H38.8885C39.2373 37.0343 39.5678 36.8677 39.6935 36.6284C39.767 36.4883 39.7943 34.8182 39.8085 29.5691L39.8272 22.6933L40.1937 22.6696C40.6244 22.6418 40.9361 22.3845 41.0086 21.9969C41.034 21.8613 41.0437 21.0527 41.0301 20.1999L41.0056 18.6496L40.7877 18.4318L40.57 18.2142L33.0107 18.1749L25.4515 18.1356L25.4329 9.4131C25.4186 2.70236 25.392 0.648257 25.3178 0.507126C25.0934 0.0798813 25.7295 0.100862 13.1418 0.106206C6.7344 0.108956 1.42127 0.140153 1.33486 0.175514ZM12.2934 15.896V30.0406H7.38366H2.47392V15.896V1.75146H7.38366H12.2934V15.896ZM23.8219 9.94352L23.8018 18.1356L20.581 18.1749C18.8096 18.1965 17.2971 18.245 17.2199 18.2826C16.8952 18.4409 16.8496 18.7116 16.8496 20.483V22.1704L17.088 22.4088C17.303 22.624 17.3816 22.6494 17.8932 22.6703L18.46 22.6933L18.4787 29.5691C18.4929 34.8182 18.5202 36.4883 18.5937 36.6284C18.7194 36.8677 19.0499 37.0343 19.3988 37.0343H19.6776V37.8594V38.6845H16.8104H13.9431V20.218V1.75146H18.8925H23.8418L23.8219 9.94352ZM9.02909 13.3248C9.00788 13.3801 9.00018 14.1139 9.01196 14.9553L9.03333 16.4854L9.83853 16.5078L10.6437 16.5302V14.8772V13.2243H9.85573C9.28809 13.2243 9.0569 13.2524 9.02909 13.3248ZM15.5927 14.8745V16.5247H16.4176H17.2424V14.8745V13.2243H16.4176H15.5927V14.8745ZM39.3952 20.4144V21.0038H28.9472H18.4993V20.4144V19.8251H28.9472H39.3952V20.4144ZM38.1383 25.3257V27.9975H29.1436H20.149V25.3257V22.654H29.1436H38.1383V25.3257ZM27.926 25.1293V25.9544H29.1436H30.3612V25.1293V24.3042H29.1436H27.926V25.1293ZM38.1383 32.5159V35.3841H29.1436H20.149V32.5159V29.6477H29.1436H38.1383V32.5159ZM27.926 32.123V32.9481H29.1436H30.3612V32.123V31.2979H29.1436H27.926V32.123ZM12.2934 35.1876V38.6845H7.38366H2.47392V35.1876V31.6908H7.38366H12.2934V35.1876ZM6.16604 35.0305V35.8556H7.38366H8.60128V35.0305V34.2054H7.38366H6.16604V35.0305ZM22.5842 37.8594V38.6845H21.9558H21.3273V37.8594V37.0343H21.9558H22.5842V37.8594ZM36.9599 37.8594V38.6845H36.3315H35.703V37.8594V37.0343H36.3315H36.9599V37.8594Z" fill="white"/>
</svg>
