<svg width="36" height="40" viewBox="0 0 36 40" fill="none" xmlns="http://www.w3.org/2000/svg">
<path fill-rule="evenodd" clip-rule="evenodd" d="M0.810573 0.932407C0.729902 0.967037 0.564894 1.10329 0.443888 1.23508L0.223877 1.47469V3.09116V4.70764L0.473296 4.97296C0.61051 5.11889 0.816807 5.2596 0.931652 5.28561L1.14059 5.33294V21.8508C1.14059 38.0524 1.1433 38.3743 1.28294 38.6565C1.46892 39.0323 1.87345 39.3931 2.22033 39.4923C2.52673 39.5801 26.1873 39.6104 26.4073 39.5233C26.7338 39.3942 26.7559 38.6872 26.439 38.5124C26.3583 38.4678 25.2065 38.4383 23.5493 38.4383H20.7938L20.8127 33.7694L20.8316 29.1004L26.9369 29.0811L33.0422 29.0618V33.6324V38.203L32.8792 38.3206C32.7402 38.421 32.381 38.4383 30.4352 38.4383H28.1542L27.9947 38.6133C27.7829 38.8458 27.7874 39.1974 28.005 39.4081C28.1719 39.5697 28.2138 39.5725 30.4801 39.572C31.8625 39.5718 32.8964 39.5399 33.0625 39.4923C33.4094 39.3931 33.8139 39.0323 33.9999 38.6565C34.1395 38.3743 34.1423 38.0497 34.1449 21.8637L34.1475 5.35872L34.4565 5.2075C34.6264 5.12433 34.8415 4.93788 34.9346 4.79316C35.0994 4.53684 35.1031 4.49064 35.0813 2.99854L35.059 1.46697L34.7827 1.1823L34.5065 0.897702L21.9854 0.876758C15.0988 0.865265 9.388 0.875019 9.29471 0.898307C8.92663 0.990476 8.86569 1.7298 9.21052 1.92003C9.29655 1.96744 13.7706 1.99405 21.6701 1.99405H33.9956V3.09041V4.18676H17.6414H1.28726V3.09041V1.99405H4.39133H7.49532L7.65482 1.81909C7.86662 1.58659 7.86207 1.235 7.64456 1.02427C7.47537 0.860426 7.464 0.859897 4.21605 0.86466C2.42369 0.867306 0.891244 0.897777 0.810573 0.932407ZM4.07407 21.8796V38.4383H3.32039C2.75686 38.4383 2.52549 38.4086 2.40367 38.3206L2.24064 38.203V21.7619V5.32092H3.15736H4.07407V21.8796ZM19.6949 21.8796V38.4383H12.4345H5.17413V21.8796V5.32092H12.4345H19.6949V21.8796ZM33.0422 8.7612V12.2015H32.6101C32.2226 12.2015 32.174 12.1839 32.1388 12.0314C32.1171 11.9377 31.9619 10.9426 31.7939 9.81975C31.4363 7.43022 31.3606 7.19636 30.8735 6.97422C30.4009 6.75865 29.3435 6.79071 29.0323 7.03009C28.6527 7.32195 28.5903 7.54387 28.2378 9.85755C28.0509 11.0843 27.8721 12.1155 27.8404 12.1491C27.8088 12.1827 27.6049 12.1997 27.3874 12.1869L26.9919 12.1637L26.6856 10.16C26.2701 7.44293 26.2636 7.41593 25.9623 7.14313C25.6624 6.87161 25.3781 6.80704 24.6494 6.845C24.2438 6.86609 24.0506 6.91343 23.9017 7.02813C23.4713 7.35938 23.4426 7.45533 23.1003 9.7114C22.9208 10.8938 22.7568 11.9388 22.7359 12.0336C22.6984 12.2034 22.6836 12.2056 21.7646 12.1848L20.8316 12.1637L20.8125 8.74229L20.7934 5.32092H26.9178H33.0422V8.7612ZM25.5485 10.0277C25.7184 11.1609 25.8569 12.1136 25.8563 12.1448C25.8557 12.1759 25.4096 12.2015 24.8651 12.2015C23.9409 12.2015 23.8751 12.1919 23.8751 12.0577C23.8751 11.9786 24.0068 11.0514 24.1678 9.99728C24.3289 8.94319 24.4609 8.05515 24.4612 8.02399C24.4615 7.99284 24.6368 7.96729 24.8507 7.96729H25.2397L25.5485 10.0277ZM30.4043 8.02399C30.4054 8.05515 30.548 8.99136 30.721 10.1043C30.894 11.2173 31.0196 12.1445 31 12.1647C30.9411 12.2254 29.0087 12.2061 29.0081 12.1448C29.0072 12.0437 29.6023 8.15934 29.6337 8.0618C29.6665 7.95988 30.4004 7.92389 30.4043 8.02399ZM33.0422 14.0161V14.6966H26.9185H20.7949V14.0161V13.3356H26.9185H33.0422V14.0161ZM33.0422 20.632V25.4333H31.9699H30.8975L31.0189 25.2632C31.0857 25.1696 31.2465 24.8719 31.3762 24.6016L31.6121 24.1101L31.6369 22.5823C31.6606 21.1268 31.6541 21.0406 31.5017 20.7608C31.1909 20.1908 31.403 20.2162 26.9526 20.2162C23.0933 20.2162 22.9686 20.2207 22.7364 20.3686C22.2905 20.6528 22.2453 20.8708 22.2768 22.5855C22.3073 24.243 22.3464 24.4346 22.7925 25.114L23.0048 25.4374L21.9182 25.4165L20.8316 25.3955L20.8126 20.7077C20.8021 18.1293 20.8094 15.9773 20.8286 15.9253C20.8562 15.8507 22.1491 15.8308 26.9529 15.8308H33.0422V20.632ZM16.7955 17.7937C16.4279 17.9455 16.4314 17.9142 16.4314 21.133C16.4314 24.1318 16.432 24.1444 16.5923 24.3097C16.8032 24.5271 17.1596 24.5271 17.3705 24.3097C17.5308 24.1444 17.5314 24.1321 17.5314 21.1235C17.5314 18.2022 17.5266 18.0986 17.3847 17.9579C17.1992 17.774 16.9867 17.7147 16.7955 17.7937ZM30.5487 22.5089C30.5487 23.8735 30.4652 24.2163 30.0211 24.6741C29.5453 25.1647 29.3043 25.2065 26.9535 25.2065C24.7989 25.2065 24.4814 25.1659 24.0273 24.8325C23.9036 24.7417 23.7114 24.5079 23.6003 24.3131C23.4044 23.9694 23.3976 23.9201 23.374 22.6546L23.3496 21.3504H26.9491H30.5487V22.5089ZM33.0422 27.248V27.9285H26.9185H20.7949V27.248V26.5675H26.9185H33.0422V27.248Z" fill="white"/>
</svg>
