<svg width="40" height="40" viewBox="0 0 40 40" fill="none" xmlns="http://www.w3.org/2000/svg">
<path fill-rule="evenodd" clip-rule="evenodd" d="M21.2846 1.00138C20.8898 1.17793 20.5062 1.608 20.4011 1.99215C20.3454 2.19545 20.3257 4.01734 20.3401 7.62507L20.3613 12.9574L20.5923 13.3244C20.7445 13.5661 20.9398 13.7519 21.1646 13.8687L21.5057 14.0461L29.9548 14.0262L38.4038 14.0062L38.7308 13.7789C38.9106 13.6539 39.1302 13.4152 39.2186 13.2485C39.3766 12.9507 39.3799 12.8516 39.4026 7.60363C39.4187 3.89263 39.4 2.17468 39.3414 1.97639C39.2308 1.60232 38.8417 1.17376 38.4562 1.00138C38.1638 0.870677 37.7121 0.863403 29.8704 0.863403C22.0287 0.863403 21.577 0.870677 21.2846 1.00138ZM29.3314 7.45209V12.9076H25.5454C22.1306 12.9076 21.7456 12.8953 21.6186 12.7822C21.4848 12.663 21.4778 12.3994 21.4778 7.49513C21.4778 2.94603 21.492 2.31342 21.5977 2.16506L21.7175 1.99662H25.5245H29.3314V7.45209ZM38.1222 2.12202C38.256 2.24121 38.263 2.50633 38.263 7.45845C38.263 12.0947 38.2497 12.6825 38.1421 12.7885C38.0354 12.8935 37.5759 12.9076 34.2537 12.9076H30.4864V7.45209V1.99662H34.2339C37.6129 1.99662 37.9952 2.00898 38.1222 2.12202ZM3.94461 2.63567C3.50288 2.77327 3.00987 3.06893 2.7152 3.37299C2.43809 3.65895 2.07467 4.32975 2.07467 4.55539C2.07467 4.69049 2.00945 4.70875 1.41843 4.73928C0.715912 4.7755 0.508946 4.86756 0.193029 5.28392C0.0535882 5.46774 0.034262 5.60238 0.034262 6.3913C0.034262 7.36927 0.0858497 7.51248 0.564383 7.86413C0.775738 8.01946 0.82748 8.02052 9.33752 8.0406L17.8981 8.06083L18.2425 7.88906C18.7791 7.62144 18.8984 7.34897 18.8984 6.3913C18.8984 5.73066 18.872 5.55071 18.7426 5.33052C18.5151 4.94318 18.0279 4.72436 17.3928 4.72436H16.8824L16.7879 4.40233C16.6664 3.9884 16.226 3.34844 15.8878 3.09461C15.7424 2.9855 15.4595 2.82169 15.259 2.73054C14.8964 2.56574 14.8671 2.56483 9.58183 2.54975C5.33355 2.53762 4.20408 2.55482 3.94461 2.63567ZM14.7623 3.78124C15.0959 3.91839 15.4397 4.22086 15.5954 4.51417L15.7051 4.72064L11.3854 4.74148L7.06574 4.76224L6.9186 4.94114C6.74459 5.15269 6.72819 5.47062 6.88071 5.67596C6.98659 5.81848 7.15667 5.82424 12.3667 5.86091L17.7435 5.8988V6.3913V6.88381L9.44709 6.90306L1.15071 6.92238V6.39161V5.86091H3.19112C5.12889 5.86091 5.2393 5.85326 5.38552 5.70937C5.58001 5.51798 5.58317 5.17314 5.39253 4.94114C5.25378 4.77232 5.18879 4.7608 4.23758 4.73731C3.6832 4.72352 3.22962 4.69625 3.22962 4.6767C3.22962 4.65707 3.28159 4.5422 3.34504 4.42143C3.48109 4.16252 3.90056 3.83095 4.20632 3.74063C4.32551 3.7054 6.68499 3.67365 9.44955 3.67009C13.8298 3.66441 14.5128 3.67873 14.7623 3.78124ZM27.1775 5.78325C26.9509 6.00616 26.9323 6.16551 26.9588 7.65856C26.9804 8.87877 26.999 9.04508 27.1297 9.18708C27.3211 9.39499 27.7381 9.39893 27.9455 9.19481C28.0894 9.05319 28.0995 8.94226 28.0995 7.50316C28.0995 5.99131 28.0963 5.9601 27.9213 5.79833C27.6993 5.59314 27.3773 5.58662 27.1775 5.78325ZM31.8442 5.79067L31.6413 5.94767V7.49551C31.6413 8.94226 31.6514 9.05319 31.7953 9.19481C32.0246 9.42045 32.4367 9.39689 32.6367 9.14669C32.7857 8.9603 32.7963 8.84952 32.7963 7.47634C32.7963 6.01579 32.795 6.00427 32.6073 5.81962C32.3763 5.59231 32.1133 5.5823 31.8442 5.79067ZM3.64963 15.2909C3.48109 15.4567 3.46061 15.5413 3.46061 16.0704C3.46061 16.5354 3.4981 16.7371 3.63385 17.0014C3.82264 17.3692 4.22534 17.6811 4.51146 17.6811C4.68285 17.6811 4.69255 17.7072 4.69255 18.17V18.6588L2.73461 18.6814C0.896623 18.7026 0.76365 18.7135 0.564229 18.8602C0.0829238 19.2141 0.0364179 19.3473 0.00908417 20.4502C-0.0140148 21.3816 -0.00208033 21.4907 0.152914 21.762C0.390602 22.1782 0.787519 22.3788 1.37292 22.3788H1.84368V30.3372C1.84368 39.0473 1.81997 38.583 2.29049 39.0768C2.40468 39.1967 2.63674 39.3579 2.80614 39.4351C3.10288 39.5703 3.71855 39.5754 19.7069 39.5754C35.6952 39.5754 36.3109 39.5703 36.6076 39.4351C36.777 39.3579 37.0091 39.1967 37.1232 39.0768C37.5938 38.583 37.5701 39.0473 37.5701 30.3372V22.3788H38.0397C38.6542 22.3788 38.9866 22.2186 39.2341 21.8029C39.422 21.4874 39.429 21.4323 39.4047 20.4541C39.3773 19.347 39.3311 19.2143 38.8495 18.8602C38.6482 18.7122 38.5202 18.7028 36.4241 18.6819C34.2704 18.6603 34.2058 18.664 34.0043 18.8199C33.738 19.026 33.7195 19.4225 33.9658 19.6482C34.1266 19.7957 34.2276 19.8027 36.1987 19.8027H38.263V20.5225V21.2423H19.7069H1.15071V20.5225V19.8027H16.6706C27.463 19.8027 32.2369 19.7782 32.3431 19.7223C32.7124 19.5278 32.6776 18.9268 32.2869 18.7517C32.1484 18.6896 29.5397 18.6661 22.7794 18.6661H13.4628L13.4857 18.2041C13.5087 17.7426 13.509 17.7421 13.8047 17.6423C14.4696 17.418 14.7021 17.0204 14.7021 16.1069C14.7021 15.5019 14.6842 15.4178 14.5239 15.2696C14.3053 15.0675 14.0077 15.0583 13.7719 15.2461C13.6226 15.3651 13.5879 15.4818 13.5516 15.9849L13.5087 16.5824L9.23535 16.6034C6.88503 16.6149 4.88404 16.6058 4.7888 16.583C4.6288 16.5448 4.61555 16.4994 4.61555 15.988C4.61555 15.5073 4.59207 15.4127 4.43738 15.2696C4.20093 15.0511 3.88463 15.0597 3.64963 15.2909ZM12.3152 18.2115V18.6661H9.08135H5.8475V18.2115V17.7569H9.08135H12.3152V18.2115ZM19.0909 30.4105V38.4422H11.1856C3.9376 38.4422 3.2685 38.4317 3.13945 38.3168C3.00471 38.1968 2.99863 37.8483 2.99863 30.2851V22.3788H11.0448H19.0909V30.4105ZM36.4151 26.1295V29.8801H28.369H20.3228V26.1295V22.3788H28.369H36.4151V26.1295ZM5.51295 23.3986C4.59353 23.7212 4.10022 24.7489 4.39696 25.7235C4.51115 26.0986 4.93417 26.5856 5.30976 26.7741C6.76006 27.5022 8.42811 26.1633 7.97383 24.6358C7.66593 23.6004 6.54455 23.0367 5.51295 23.3986ZM10.4813 23.3992C10.0301 23.5991 9.77486 23.823 9.54164 24.2231C9.1411 24.9104 9.24874 25.819 9.7975 26.3824C10.1968 26.7923 10.5879 26.9573 11.1603 26.9573C11.7326 26.9573 12.1237 26.7923 12.523 26.3824C12.8647 26.0317 13.0082 25.6483 13.0082 25.0867C13.0082 24.4556 12.6866 23.8947 12.1319 23.5579C11.6798 23.2835 10.9095 23.2094 10.4813 23.3992ZM26.4591 23.3723C26.1037 23.5757 26.147 24.1673 26.5299 24.339C26.6531 24.3943 27.3161 24.4246 28.4007 24.4246C29.9837 24.4246 30.0923 24.4156 30.2835 24.2676C30.5456 24.0647 30.5621 23.6666 30.3178 23.4426C30.1582 23.2962 30.056 23.2882 28.3737 23.2904C27.2772 23.2918 26.5449 23.3232 26.4591 23.3723ZM6.5447 24.5027C6.76984 24.6212 6.94316 25.0064 6.88618 25.2616C6.85923 25.3825 6.72896 25.5709 6.59683 25.6803C5.91118 26.2481 5.05236 25.2712 5.68758 24.6461C5.92596 24.4115 6.26428 24.3549 6.5447 24.5027ZM11.4926 24.5128C11.7499 24.6476 11.8481 24.8145 11.8508 25.1213C11.8544 25.5359 11.577 25.823 11.1728 25.823C10.7336 25.823 10.4664 25.5673 10.4698 25.1502C10.4711 24.9803 10.5144 24.7877 10.566 24.7222C10.7894 24.4384 11.1814 24.3497 11.4926 24.5128ZM4.79257 28.0586C4.29633 28.3563 4.30757 28.2507 4.30757 32.6141C4.30757 36.446 4.31234 36.5756 4.46279 36.8151C4.78441 37.3271 4.49043 37.3056 11.1603 37.3056C17.8301 37.3056 17.5361 37.3271 17.8577 36.8151C18.0082 36.5756 18.0129 36.446 18.0129 32.6141C18.0129 28.2507 18.0242 28.3563 17.5279 28.0586C17.2889 27.9152 17.0958 27.9106 11.1603 27.9106C5.22467 27.9106 5.03157 27.9152 4.79257 28.0586ZM16.858 32.6078V36.169H11.1603H5.46252V32.6078V29.0466H11.1603H16.858V32.6078ZM36.4151 34.5908C36.4151 37.8103 36.4025 38.1788 36.2877 38.3036C36.1658 38.4361 35.8153 38.4422 28.2415 38.4422H20.3228V34.7294V31.0167H28.369H36.4151V34.5908ZM26.5073 32.3191C26.137 32.4952 26.1162 33.0968 26.4738 33.2852C26.5687 33.3352 27.2978 33.3655 28.4024 33.3655C30.0758 33.3655 30.1873 33.3568 30.3324 33.214C30.5617 32.9884 30.5377 32.5828 30.2835 32.3861C30.0916 32.2376 29.9881 32.2293 28.3778 32.2341C27.3539 32.2372 26.6081 32.271 26.5073 32.3191Z" fill="white"/>
</svg>
