<svg xmlns="http://www.w3.org/2000/svg" width="124" height="24" fill="none">
  <path fill="#C96623" d="M4.08679.769491C3.164 1.31056 1.29619 2.40383 1.20724 2.4483-.314261 3.20906.246071 5.54294.246054 7.34845.246038 9.15396 1.01468 9.36367 1.39625 9.68609c.54107.34461 1.8478 1.15181 2.74613 1.62321.89833.4714 1.16738.7116 1.16738 1.601.01112.8487.02669 2.755 0 3.5911-.02668.8361-.54833 1.2341-.99305 1.3008.69688-.0334 1.14591-.1647 1.37106-.2779 1.18636-.5967 3.59271-2.1827 4.39493-2.7115l.0189-.0124c.7827-.5159.8783-1.0875.8783-1.3342-.0074-.4855-.0178-1.8434 0-3.391s-.7588-2.14503-1.17849-2.37922c-.67078-.37431-2.20802-1.2341-2.99072-1.67881-.78271-.44472-1.12292-.68932-1.12292-1.87894.01112-.29277.02669-1.19629 0-2.46818C5.66109.398151 4.5613.435953 4.08679.769491Z"/>
  <path fill="#444" fill-rule="evenodd" d="M5.12374 1.09149c.01373-.02746.04712-.03859.07458-.02486.02962.01481.05233.03954.0699.06589.0178.02671.03264.05856.04521.09253.02513.06791.04361.15096.0572.23422.02717.16639.03626.34296.03631.42363.02665 1.27085.01116 2.17463 0 2.46982.0001.59005.08485.93472.25813 1.18622.17454.25332.44364.42003.83665.64333.78249.4446 2.31955 1.30429 2.99036 1.6786.21447.11968.52152.33305.77242.71495.2511.38229.4436.92974.4346 1.71348-.0089.7732-.0022 1.4992.0034 2.0929l.0002.0155c.0055.5851.0098 1.0424-.0037 1.285-.0063.113-.0585.2417-.129.3567-.0709.1158-.1643.2133-.26.2851-.0246.0184-.1929.1357-.2113.1112-.0184-.0246.1347-.1557.1557-.1779.189-.2002.1682-.1603.2335-.2669.0657-.1073.0952-.2272.1001-.3143.0133-.239.009-.6941.0034-1.2849l-.0001-.0085c-.0056-.5936-.0123-1.3207-.0034-2.0952.0088-.76386-.1785-1.28915-.4164-1.65113-.23802-.36238-.52915-.56483-.7336-.67891-.67076-.37429-2.20818-1.23418-2.9911-1.67902-.38969-.22141-.68205-.39936-.87329-.67692-.19239-.27924-.27775-.65142-.27775-1.25035v-.00105l.00004-.00106c.01106-.29141.02664-1.1938-.00003-2.46491l-.00001-.00058v-.00058c0-.07526-.00872-.24623-.03485-.4063-.01309-.08017-.03019-.15528-.05175-.21356-.01078-.02912-.02207-.05237-.03345-.06944-.01162-.01743-.02115-.02514-.02711-.02812-.02746-.01373-.03859-.04712-.02486-.07458Z" clip-rule="evenodd"/>
  <path fill="#444" d="m1.5519 13.8999 2.73502-1.4231c.35221-.1668.57457-.3892.66351.0444.08895.4336.05545.8969.07027 1.1452 0 .8672.00668 2.6285 0 2.735-.0258.4114-.09299.8868-.52254 1.1563-.24816.1556-.88203-.0074-1.12292-.1668-.35948-.2186-1.4015-.7432-2.379234-1.5232-.9033735-.7206-.303009-1.6211.555894-1.9678ZM15.0242 1.47187c0-.585287.2951-.900444.8431-.900444h4.7004c.4532 0 .822.18009 1.0117.607804l5.7543 12.35867L33.088 1.17923c.1897-.427714.5586-.607804 1.0118-.607804h4.7004c.548 0 .8431.315157.8431.900444V16.9596c0 .5852-.2951.9004-.8431.9004h-1.8549c-.548 0-.8431-.3152-.8431-.9004V3.72299h-.2108L30.1371 16.0816c-.1897.4277-.5585.6078-1.0117.6078h-3.5833c-.4532 0-.822-.1801-1.0117-.6078L18.7761 3.72299h-.2108V16.9596c0 .5852-.2951.9004-.8431.9004h-1.8549c-.548 0-.8431-.3152-.8431-.9004V1.47187ZM44.5304 17.86c-.5481 0-.8431-.3152-.8431-.9004V1.47187c0-.585287.295-.900444.8431-.900444h14.586c.4637 0 .7588.315157.7588.810404v1.53076c0 .49524-.2951.8104-.7588.8104h-11.888v3.91694h9.9066c.4638 0 .7589.31516.7589.81041v1.53075c0 .49521-.2951.81041-.7589.81041h-9.9066v3.9169h11.888c.4637 0 .7588.3152.7588.8104v1.5308c0 .4952-.2951.8104-.7588.8104h-14.586Zm20.2319 0c-.548 0-.8431-.3152-.8431-.9004V1.47187c0-.585287.2951-.900444.8431-.900444h11.3822c5.2273 0 6.9979.945474 6.9979 4.637304v.36018c0 1.94721-1.0118 3.10654-2.4978 3.64681 1.9392.47273 3.1723 1.67708 3.1723 3.64678v.3602c0 3.6918-1.7706 4.6373-6.998 4.6373H64.7623Zm11.9091-3.1516c2.6769 0 3.6043-.3826 3.6043-1.9022v-.2701c0-1.4632-.9274-1.8684-3.6043-1.8684h-9.2111v4.0407h9.2111Zm-.6745-6.94466c2.6769 0 3.6043-.48399 3.6043-1.90219v-.28139c0-1.5195-.9274-1.85717-3.6043-1.85717h-8.5366v4.04075h8.5366ZM88.7039 17.86c-.548 0-.8431-.3152-.8431-.9004V1.47187c0-.585287.2951-.900444.8431-.900444H103.29c.464 0 .759.315157.759.810404v1.53076c0 .49524-.295.8104-.759.8104H91.4019v3.91694h9.9071c.463 0 .758.31516.758.81041v1.53075c0 .49521-.295.81041-.758.81041h-9.9071v3.9169H103.29c.464 0 .759.3152.759.8104v1.5308c0 .4952-.295.8104-.759.8104H88.7039Zm20.2321 0c-.548 0-.843-.3152-.843-.9004V1.47187c0-.585287.295-.900444.843-.900444h1.855c.548 0 .843.315157.843.900444V14.7084h10.539c.463 0 .759.3152.759.8104v1.5308c0 .4952-.296.8104-.759.8104h-13.237Z"/>
  <path fill="#C96623" fill-rule="evenodd" d="M122.813 23.3106H.263733V20.849H122.813v2.4616Z" clip-rule="evenodd"/>
</svg>
