<svg xmlns="http://www.w3.org/2000/svg" width="161" height="60" fill="none">
  <path fill="url(#a)" d="M13.4318 1.65596C10.2872 3.47795 3.92208 7.15935 3.61898 7.3091-1.56596 9.87083.343529 17.7298.343472 23.8096c-.000057 6.0798 2.619308 6.7859 3.919598 7.8716 1.84386 1.1606 6.29693 3.8786 9.35823 5.466 3.0613 1.5874 3.9782 2.396 3.9782 5.3911.0378 2.8577.0909 9.2771 0 12.0924-.091 2.8154-1.8686 4.1557-3.3841 4.3803 2.3747-.1123 3.905-.5547 4.6722-.936 4.0428-2.0091 12.2429-7.3497 14.9769-9.1303l.0644-.042c2.6673-1.7371 2.9932-3.662 2.9932-4.4925-.0253-1.6348-.0607-6.2073 0-11.4186.0606-5.2114-2.5859-7.2232-4.0161-8.0118-2.2859-1.2604-7.5245-4.1556-10.1917-5.6531-2.6673-1.4975-3.8267-2.3212-3.8267-6.327.0379-.9859.091-4.02835 0-8.31126-.0909-4.282905-3.8388-4.155611-5.4558-3.03248Z"/>
  <path fill="#fff" fill-rule="evenodd" d="M16.9654 2.74024c.0468-.09247.1606-.12995.2542-.08372.1009.04987.1783.13316.2382.22189.0606.08993.1112.19719.154.31158.0857.22868.1486.50834.195.78871.0925.56027.1235 1.15484.1237 1.42648.0908 4.27941.038 7.32272 0 8.31672.0003 1.987.2891 3.1476.8796 3.9944.5948.8531 1.5119 1.4144 2.8512 2.1664 2.6665 1.4971 7.9045 4.3919 10.1904 5.6524.7309.403 1.7771 1.1215 2.6322 2.4075.8558 1.2873 1.5117 3.1307 1.481 5.7699-.0303 2.6034-.0073 5.0481.0117 7.0474l.0005.0522c.0188 1.9702.0335 3.5104-.0125 4.3272-.0214.3804-.1994.8137-.4396 1.2011-.2416.3899-.5598.7181-.8861.9599-.0837.062-.6571.4571-.7199.3744-.0627-.0827.4589-.5242.5305-.599.644-.6739.5731-.5396.7956-.8985.224-.3614.3247-.7653.3412-1.0587.0453-.8046.0307-2.3372.0117-4.3265l-.0003-.0285c-.019-1.9991-.042-4.4475-.0116-7.0554.0299-2.5722-.6085-4.341-1.4189-5.56-.8113-1.2202-1.8034-1.9019-2.5001-2.2861-2.2858-1.2603-7.525-4.1559-10.193-5.6538-1.328-.7456-2.3243-1.3448-2.976-2.2794-.6556-.9403-.9465-2.1936-.9465-4.2104v-.0035l.0002-.0036c.0377-.9813.0907-4.01994-.0001-8.3002l-.0001-.00196v-.00197c0-.25341-.0297-.82911-.1187-1.36815-.0447-.26996-.1029-.52286-.1764-.7191-.0367-.09807-.0752-.17636-.114-.23384-.0396-.05869-.0721-.08467-.0924-.0947-.0935-.04624-.1315-.15868-.0847-.25114Z" clip-rule="evenodd"/>
  <path fill="#444" d="m4.79345 45.8705 9.32035-4.7921c1.2002-.5616 1.958-1.3103 2.2611.1498.3031 1.46.1889 3.02.2394 3.8561 0 2.9201.0228 8.851 0 9.2097-.0879 1.3852-.3169 2.9863-1.7807 3.8936-.8456.5241-3.0057-.025-3.8266-.5616-1.22503-.7363-4.77604-2.5027-8.10792-5.129-3.078492-2.4265-1.03259-5.459 1.89437-6.6265Zm51.12885-20.507c-5.327 0-8.05-1.1778-8.4065-4.9056-.0541-.5835.2809-.886.8428-.886h1.9017c.5511 0 .7996.3457.8861.8428.1836 1.4263 1.8693 1.9233 5.0244 1.9233h3.0472c3.5981 0 5.0028-.6591 5.0028-1.9233v-.389c0-1.1886-1.3939-1.7505-5.0028-1.7937l-3.2741-.0324c-2.6473-.0324-4.8624-.3566-6.2563-.9833-1.5127-.6808-2.2151-2.0098-2.2151-3.7495v-.3457c0-3.16602 2.4312-5.04615 8.4282-5.04615h3.5009c5.3271 0 8.05 1.17779 8.4066 4.90565.054.5835-.2809.886-.8428.886h-1.9017c-.5511 0-.7996-.3457-.8861-.8428-.1837-1.4263-1.8693-1.9233-5.0245-1.9233H56.106c-3.5982 0-5.0029.6591-5.0029 1.9233v.389c0 1.1886 1.3939 1.7505 5.0029 1.7937l3.274.0324c2.6473.0324 4.8624.3566 6.2563.9833 1.5128.6807 2.2151 2.0098 2.2151 3.7495v.3457c0 3.166-2.4744 5.0461-8.4281 5.0461h-3.501Zm14.2529-.3458c-.6808 0-.9185-.4214-.6051-1.0373l7.5961-14.96545c.2053-.4106.5619-.5943 1.0373-.5943h4.0413c.4754 0 .832.1837 1.0373.5943l7.5961 14.96545c.3134.6159.0757 1.0373-.6051 1.0373h-2.1826c-.4755 0-.8213-.1621-1.0374-.5943l-1.383-2.6041H74.7783l-1.3831 2.6041c-.2161.4322-.5619.5943-1.0373.5943h-2.1827Zm6.0726-6.2239h7.9527l-3.7927-7.3476h-.3673l-3.7927 7.3476Zm24.8652 6.2239c-.475 0-.821-.1513-1.037-.5943L92.7283 9.45797c-.3025-.62671-.0756-1.03732.6051-1.03732h2.1935c.4755 0 .8212.16208 1.0373.5943l6.4288 12.97725h.476l6.429-12.97725c.216-.43222.562-.5943 1.037-.5943h2.205c.68 0 .897.41061.594 1.03732l-7.337 14.96543c-.216.443-.562.5943-1.037.5943h-4.247Zm22.854 0c-.476 0-.822-.1513-1.038-.5943l-7.347-14.96543c-.303-.62671-.076-1.03732.605-1.03732h2.193c.476 0 .821.16208 1.038.5943l6.429 12.97725h.475l6.429-12.97725c.216-.43222.562-.5943 1.038-.5943h2.204c.681 0 .897.41061.594 1.03732L129.25 24.4234c-.216.443-.561.5943-1.037.5943h-4.246Zm15.078 0c-.681 0-.919-.4214-.605-1.0373l7.596-14.96545c.205-.4106.562-.5943 1.037-.5943h4.041c.476 0 .832.1837 1.038.5943l7.596 14.96545c.313.6159.075 1.0373-.605 1.0373h-2.183c-.475 0-.821-.1621-1.037-.5943l-1.383-2.6041h-10.892l-1.383 2.6041c-.216.4322-.562.5943-1.038.5943h-2.182Zm6.072-6.2239h7.953l-3.793-7.3476h-.367l-3.793 7.3476ZM47.4725 36.5802c0-.548.2951-.8431.8432-.8431h4.7004c.4531 0 .822.1686 1.0117.5691l5.7543 11.5718 5.7543-11.5718c.1897-.4005.5586-.5691 1.0118-.5691h4.7004c.548 0 .8431.2951.8431.8431v14.5017c0 .548-.2951.8431-.8431.8431h-1.8549c-.548 0-.8431-.2951-.8431-.8431V38.688h-.2108l-5.7543 11.5718c-.1897.4005-.5586.5691-1.0118.5691h-3.5832c-.4532 0-.8221-.1686-1.0118-.5691L51.2244 38.688h-.2108v12.3939c0 .548-.295.8431-.8431.8431h-1.8548c-.5481 0-.8432-.2951-.8432-.8431V36.5802Zm30.737 15.3448c-.548 0-.8431-.2951-.8431-.8431V36.5802c0-.548.2951-.8431.8431-.8431h14.586c.4637 0 .7588.2951.7588.7588v1.4333c0 .4637-.2951.7588-.7588.7588h-11.888v3.6676h9.9067c.4637 0 .7588.2951.7588.7588v1.4333c0 .4637-.2951.7588-.7588.7588h-9.9067v3.6676h11.888c.4637 0 .7588.2951.7588.7588v1.4333c0 .4637-.2951.7588-.7588.7588h-14.586Zm21.4627 0c-.5481 0-.8432-.2951-.8432-.8431V36.5802c0-.548.2951-.8431.8432-.8431h11.3818c5.228 0 6.998.8852 6.998 4.342v.3373c0 1.8232-1.012 2.9088-2.498 3.4146 1.94.4427 3.173 1.5703 3.173 3.4147v.3372c0 3.4568-1.771 4.3421-6.998 4.3421H99.6722Zm11.9088-2.9509c2.677 0 3.605-.3584 3.605-1.7811v-.253c0-1.37-.928-1.7494-3.605-1.7494h-9.211v3.7835h9.211Zm-.674-6.5026c2.677 0 3.604-.4532 3.604-1.7811v-.2635c0-1.4227-.927-1.7389-3.604-1.7389h-8.537v3.7835h8.537Zm13.938 9.4535c-.548 0-.844-.2951-.844-.8431V36.5802c0-.548.296-.8431.844-.8431h14.586c.463 0 .758.2951.758.7588v1.4333c0 .4637-.295.7588-.758.7588h-11.888v3.6676h9.906c.464 0 .759.2951.759.7588v1.4333c0 .4637-.295.7588-.759.7588h-9.906v3.6676h11.888c.463 0 .758.2951.758.7588v1.4333c0 .4637-.295.7588-.758.7588h-14.586Zm21.462 0c-.548 0-.843-.2951-.843-.8431V36.5802c0-.548.295-.8431.843-.8431h1.855c.548 0 .843.2951.843.8431v12.3939h10.539c.464 0 .759.2951.759.7588v1.4333c0 .4637-.295.7588-.759.7588h-13.237Z"/>
  <path fill="#C96623" fill-rule="evenodd" d="M159.679 30.4639H47.5809v-2.2188H159.679v2.2188Z" clip-rule="evenodd"/>
  <defs>
    <linearGradient id="a" x1="18.4615" x2="18.4615" y1=".989014" y2="59.011" gradientUnits="userSpaceOnUse">
      <stop offset=".0336538" stop-color="#F28439"/>
      <stop offset=".533654" stop-color="#C96623"/>
      <stop offset="1" stop-color="#633211"/>
    </linearGradient>
  </defs>
</svg>
