<svg xmlns="http://www.w3.org/2000/svg" fill="none" viewBox="0 0 210 330">
  <path fill="#C96623" d="M77.2225 3.79328C59.8555 14.1558 24.7031 35.0938 23.0292 35.9455-5.60556 50.5153 4.93993 95.2133 4.93961 129.792c-.00031 34.579 14.46559 38.595 21.64669 44.77 10.183 6.601 34.7758 22.059 51.6824 31.088 16.9066 9.028 21.9703 13.627 21.9703 30.661.209 16.254.502 52.764 0 68.776C99.7367 321.1 89.9192 328.722 81.5496 330c13.1152-.639 21.5664-3.155 25.8034-5.323 22.328-11.427 67.617-41.804 82.715-51.93l.353-.238c14.731-9.88 16.53-20.827 16.53-25.551-.139-9.298-.334-35.304 0-64.943.335-29.64-14.28-41.082-22.179-45.567-12.624-7.169-41.555-23.635-56.286-32.152-14.73-8.5175-21.133-13.202-21.133-35.9853.209-5.6072.502-22.9112 0-47.2702-.502-24.35904-21.2003-23.63505-30.1305-17.24722Z"/>
  <path fill="#fff" fill-rule="evenodd" d="M96.7374 9.96009c.2584-.52591.8868-.73908 1.4036-.47612.5575.28363.9849.75733 1.3154 1.26193.3351.5115.6146 1.1216.8506 1.7722.473 1.3006.821 2.8912 1.077 4.4858.511 3.1865.682 6.5681.683 8.1131.502 24.3391.21 41.6481 0 47.3016.002 11.3005 1.597 17.9015 4.858 22.7181 3.285 4.8516 8.35 8.0443 15.746 12.3213 14.727 8.515 43.654 24.979 56.279 32.148 4.036 2.292 9.814 6.378 14.536 13.692 4.727 7.322 8.349 17.807 8.18 32.817-.168 14.807-.041 28.711.064 40.082l.003.297c.104 11.205.185 19.965-.069 24.611-.118 2.163-1.102 4.628-2.428 6.831-1.334 2.217-3.092 4.084-4.894 5.459-.462.353-3.628 2.6-3.975 2.13-.347-.471 2.534-2.981 2.929-3.407 3.557-3.833 3.166-3.069 4.394-5.11 1.237-2.055 1.794-4.353 1.885-6.021.25-4.577.169-13.293.064-24.607l-.001-.163c-.105-11.37-.232-25.295-.065-40.127.166-14.63-3.36-24.69-7.836-31.622-4.48-6.941-9.959-10.818-13.807-13.003-12.624-7.168-41.558-23.636-56.293-32.156-7.333-4.24-12.836-7.648-16.435-12.9642-3.621-5.3479-5.2272-12.4758-5.2272-23.9464v-.0202l.0007-.0201c.2085-5.5811.5015-22.8635-.0005-47.2075l-.0002-.0111v-.0112c0-1.4413-.1641-4.7156-.6559-7.7813-.2464-1.5355-.5681-2.9738-.9739-4.09-.2029-.5578-.4154-1.003-.6295-1.3299-.2187-.3338-.3981-.4816-.5102-.5386-.5168-.263-.7263-.9025-.4679-1.42841Z" clip-rule="evenodd"/>
  <path fill="#fff" d="m29.5155 255.263 51.4732-27.254c6.6286-3.194 10.8134-7.453 12.4874.851 1.6739 8.304 1.0434 17.176 1.3224 21.932 0 16.608.1257 50.34 0 52.38-.4855 7.879-1.7501 16.985-9.8343 22.145-4.6703 2.981-16.5997-.142-21.1333-3.194-6.7654-4.188-26.3764-14.234-44.7774-29.171-17.00151-13.801-5.7026-31.048 10.462-37.689Z"/>
</svg>
