<svg width="100%" height="100%" viewBox="0 0 289 234" fill="none" xmlns="http://www.w3.org/2000/svg">
    <path d="M201.807 60.987C201.807 60.996 201.811 61.005 201.811 61.014C201.81 60.9915 201.807 60.9705 201.808 60.948C201.804 60.9495 201.801 60.9555 201.807 60.987Z" fill="#DADADA"/>
    <path d="M196.197 0C161.217 0 131.869 24.0675 123.778 56.5425C126.187 56.4615 128.598 56.385 131.007 56.337C136.252 56.2155 141.498 56.1765 146.745 56.1465C151.992 56.1105 157.239 56.106 162.487 56.1285C167.736 56.1375 172.986 56.241 178.236 56.4C183.487 56.58 188.739 56.802 194.007 57.201C196.654 57.4125 199.255 57.6045 202.009 58.0305C202.362 58.089 202.71 58.149 203.1 58.2435C203.191 58.263 203.298 58.2915 203.403 58.32C203.506 58.3485 203.607 58.374 203.74 58.4205C203.862 58.461 203.979 58.497 204.174 58.5855C204.313 58.656 204.586 58.7475 204.993 59.142C205.153 59.313 205.294 59.52 205.395 59.733C205.519 60.0165 205.48 59.9685 205.51 60.054C205.54 60.1725 205.566 60.294 205.585 60.414C205.609 60.6075 205.615 60.7785 205.615 60.942C205.609 61.0785 205.602 61.221 205.59 61.3515L205.542 61.6995C205.465 62.13 205.371 62.514 205.264 62.868C204.84 64.284 204.315 65.511 203.779 66.753C202.705 69.2145 201.499 71.5665 200.28 73.9095C199.063 76.251 197.791 78.5565 196.494 80.8455C193.903 85.425 191.212 89.94 188.374 94.3695L187.986 94.158L194.475 79.8255C196.594 75.048 198.753 70.2585 200.55 65.4495C200.979 64.272 201.397 63.069 201.657 61.9635C201.583 61.9545 201.519 61.9425 201.445 61.9335C199.002 61.662 196.362 61.5705 193.776 61.479C188.574 61.3215 183.342 61.221 178.113 61.119C167.652 60.9195 157.179 60.594 146.703 60.3225C141.465 60.186 136.225 60.066 130.986 59.8815C128.35 59.7975 125.713 59.688 123.076 59.5755C122.08 64.44 121.555 69.4755 121.555 74.6355C121.555 82.308 122.716 89.7105 124.867 96.6765C130.42 96.5385 135.975 96.3825 141.528 96.231C149.752 96.0195 157.977 96.006 166.2 96.198C174.424 96.3975 182.649 96.699 190.873 97.182C199.098 97.644 207.322 98.2335 215.545 99.183V99.846C207.321 100.797 199.096 101.386 190.873 101.847C190.719 101.856 190.564 101.86 190.411 101.869L198.13 118.589L186.676 102.051C179.851 102.402 173.026 102.666 166.201 102.831C157.977 103.023 149.752 103.01 141.529 102.798C136.657 102.665 131.785 102.527 126.913 102.399C137.932 129.867 164.79 149.274 196.195 149.274C237.418 149.274 270.835 115.857 270.835 74.634C270.835 33.411 237.418 0 196.197 0ZM148.816 69.9045C148.654 72.642 148.407 75.369 148.086 78.0885C147.765 80.8065 147.367 83.517 146.884 86.2155C146.388 88.9125 145.836 91.605 145.053 94.2675C144.915 91.494 145.008 88.749 145.156 86.01C145.318 83.2725 145.566 80.5455 145.89 77.8275C146.214 75.1095 146.611 72.4005 147.094 69.7005C147.592 67.0035 148.143 64.311 148.923 61.647C149.059 64.4205 148.965 67.1655 148.816 69.9045Z" fill="#CC720E"/>
    <path d="M116.856 96.867L92.1839 97.3155L67.5104 97.863L47.9009 98.3685L51.0749 100.219L50.7059 100.746L67.5104 101.179L92.1839 101.727L116.856 102.175C120.208 102.232 123.561 102.319 126.913 102.406C126.162 100.531 125.467 98.628 124.867 96.6825C122.197 96.7485 119.527 96.8205 116.856 96.867Z" fill="#9D9D9D"/>
    <path d="M42.8383 98.499L30.5023 98.8185L18.1648 99.189V99.852L30.5023 100.224L42.8383 100.544L46.6033 100.641L47.6818 98.373L42.8383 98.499Z" fill="#9D9D9D"/>
    <path d="M166.201 102.839C173.026 102.674 179.851 102.41 186.676 102.059L185.392 100.205L188.752 98.2845L190.411 101.877C190.566 101.868 190.72 101.864 190.873 101.855C199.098 101.394 207.322 100.803 215.545 99.8535V99.1905C207.321 98.2395 199.096 97.65 190.873 97.1895C182.649 96.7065 174.424 96.405 166.2 96.2055C157.975 96.0135 149.751 96.027 141.528 96.2385C135.975 96.39 130.42 96.546 124.867 96.684C125.467 98.6295 126.162 100.533 126.913 102.408C131.785 102.536 136.657 102.674 141.529 102.807C149.754 103.017 157.978 103.031 166.201 102.839Z" fill="#DADADA"/>
    <path d="M47.7314 98.2695L47.6819 98.373L47.9009 98.3685L47.7314 98.2695Z" fill="#9D9D9D"/>
    <path d="M37.7922 119.148L50.7057 100.746L46.6032 100.641L37.7922 119.148Z" fill="#9D9D9D"/>
    <path d="M47.9008 98.3685L47.6818 98.373L46.6033 100.641L50.7058 100.746L51.0748 100.22L47.9008 98.3685Z" fill="#9D9D9D"/>
    <path d="M198.132 118.596L190.413 101.877C189.168 101.949 187.923 101.994 186.678 102.058L198.132 118.596Z" fill="#DADADA"/>
    <path d="M185.394 100.205L186.678 102.059C187.923 101.994 189.168 101.949 190.413 101.877L188.754 98.2845L185.394 100.205Z" fill="#DADADA"/>
    <path d="M28.6964 60.7156C28.6904 60.7276 28.6814 60.7336 28.6694 60.7336C28.6634 60.7351 28.6754 60.7456 28.6754 60.7411C28.6799 60.7396 28.6694 60.7381 28.6874 60.7351L28.7159 60.7321C28.7249 60.7096 28.7354 60.6885 28.7429 60.675C28.7309 60.69 28.7174 60.7051 28.6964 60.7156Z" fill="#9D9D9D"/>
    <path d="M115.27 56.835C104.781 57.225 94.2958 57.4515 83.8093 57.3435C73.3228 57.2475 62.8318 56.5935 52.3348 56.4345C47.0863 56.361 41.8393 56.3745 36.5833 56.5725L32.6338 56.7225C31.3003 56.7855 30.0238 56.8335 28.5913 56.9685L28.2928 57.003L28.1263 57.027L27.8983 57.075C27.7393 57.114 27.5878 57.1485 27.4288 57.207C27.2668 57.2715 27.1078 57.3435 26.9518 57.4215C26.3158 57.7635 25.8193 58.326 25.5313 58.8645C24.9868 59.952 24.9583 60.8565 24.9568 61.6545C24.9928 63.255 25.3198 64.6125 25.6678 65.958C26.3878 68.6235 27.3988 71.0985 28.4518 73.542C29.5048 75.984 30.6673 78.3615 31.8808 80.706C34.3063 85.395 36.9298 89.961 39.8098 94.374L40.1983 94.161C38.0923 89.3505 35.9968 84.5475 34.0198 79.719C33.0418 77.301 32.0983 74.8755 31.2148 72.4455C30.3478 70.014 29.5618 67.551 28.9963 65.13C28.7323 63.9315 28.5253 62.7 28.5568 61.6725C28.5583 61.2525 28.6453 60.891 28.7158 60.7305L28.6873 60.7335C28.6693 60.7365 28.6813 60.738 28.6753 60.7395C28.6753 60.7425 28.6633 60.7335 28.6693 60.732C28.6813 60.732 28.6903 60.726 28.6963 60.714C28.7173 60.7035 28.7293 60.687 28.7428 60.6735C28.7473 60.6675 28.7518 60.6524 28.7548 60.6479C28.7773 60.6284 28.7653 60.6495 28.7428 60.6735C28.7338 60.687 28.7248 60.708 28.7158 60.7305L28.7638 60.7259L28.9543 60.708C30.1348 60.621 31.4788 60.5909 32.7643 60.5579L36.6763 60.489C41.9038 60.444 47.1403 60.312 52.3768 60.1155C62.8498 59.7165 73.3288 58.9364 83.8123 58.7699C94.2958 58.5929 104.781 58.812 115.263 59.256C117.867 59.355 120.471 59.4704 123.075 59.5814C123.285 58.5599 123.526 57.5489 123.777 56.5424C120.942 56.6384 118.107 56.742 115.27 56.835Z" fill="#9D9D9D"/>
    <path d="M146.701 60.3284C157.177 60.5999 167.65 60.9254 178.111 61.1249C183.34 61.2269 188.572 61.326 193.774 61.485C196.359 61.5765 199 61.6679 201.444 61.9394C201.517 61.9484 201.582 61.9605 201.655 61.9695C201.658 61.956 201.664 61.9394 201.667 61.9259C201.733 61.6469 201.775 61.3889 201.801 61.1729L201.81 61.0334C201.81 61.0274 201.81 61.0229 201.81 61.0169C201.808 61.0079 201.805 60.999 201.805 60.99C201.799 60.9585 201.804 60.9524 201.807 60.9524C201.805 60.9734 201.808 60.9944 201.81 61.0184C201.813 61.0499 201.817 61.0815 201.826 61.113L201.901 61.3214C201.976 61.5014 202.093 61.6769 202.23 61.8134C202.515 62.1029 202.642 62.1089 202.629 62.1224C202.674 62.1404 202.633 62.1299 202.599 62.1224C202.578 62.1149 202.518 62.1044 202.464 62.0939L202.288 62.0609C202.101 62.0279 201.874 61.9994 201.654 61.9709C201.394 63.0764 200.977 64.2809 200.547 65.4569C198.75 70.2659 196.591 75.0554 194.472 79.8329L187.983 94.1654L188.371 94.3769C191.211 89.9474 193.9 85.4324 196.491 80.8529C197.788 78.5639 199.06 76.2584 200.277 73.9169C201.496 71.5754 202.702 69.2235 203.776 66.7605C204.312 65.5185 204.837 64.2914 205.261 62.8754C205.368 62.5214 205.462 62.1389 205.539 61.7069L205.587 61.359C205.599 61.2285 205.606 61.0859 205.612 60.9494C205.612 60.7859 205.605 60.615 205.582 60.4215C205.563 60.3015 205.537 60.1799 205.507 60.0614C205.477 59.9759 205.516 60.0239 205.392 59.7404C205.293 59.5274 205.152 59.3189 204.99 59.1494C204.583 58.7549 204.31 58.6634 204.171 58.5929C203.977 58.5044 203.86 58.4684 203.737 58.4279C203.604 58.3814 203.503 58.3559 203.4 58.3274C203.295 58.2989 203.187 58.2704 203.097 58.2509C202.707 58.1564 202.357 58.0964 202.006 58.0379C199.252 57.6119 196.651 57.4199 194.004 57.2084C188.736 56.8094 183.484 56.5874 178.233 56.4074C172.981 56.2469 167.733 56.1449 162.484 56.1359C157.236 56.1134 151.989 56.118 146.742 56.154C141.495 56.184 136.249 56.223 131.004 56.3445C128.595 56.3925 126.184 56.4689 123.775 56.5499C123.525 57.5564 123.283 58.5674 123.073 59.5889C125.71 59.7014 128.346 59.8094 130.983 59.8949C136.224 60.0719 141.463 60.1919 146.701 60.3284Z" fill="#DADADA"/>
    <path d="M202.465 62.0896C202.521 62.1001 202.579 62.1105 202.6 62.118C202.635 62.1255 202.675 62.136 202.63 62.118C202.644 62.1045 202.515 62.0985 202.231 61.809C202.095 61.6725 201.978 61.4971 201.903 61.3171L201.828 61.1085C201.819 61.0785 201.814 61.047 201.811 61.014C201.811 61.02 201.811 61.0245 201.811 61.0305L201.802 61.17C201.777 61.386 201.735 61.6455 201.669 61.923C201.666 61.9365 201.66 61.9531 201.657 61.9666C201.877 61.9951 202.104 62.0235 202.291 62.0565L202.465 62.0896Z" fill="#DADADA"/>
    <path d="M83.5108 86.2155C84.0073 88.9125 84.5593 91.605 85.3423 94.2675C85.4803 91.494 85.3873 88.749 85.2388 86.01C85.0768 83.2725 84.8293 80.5455 84.5053 77.8275C84.1813 75.1095 83.7838 72.4005 83.3008 69.7005C82.8028 67.0035 82.2523 64.311 81.4723 61.647C81.3373 64.419 81.4318 67.1655 81.5788 69.9045C81.7408 72.642 81.9883 75.369 82.3093 78.0885C82.6288 80.8065 83.0263 83.517 83.5108 86.2155Z" fill="#9D9D9D"/>
    <path d="M147.096 69.7005C146.613 72.399 146.215 75.1095 145.891 77.8275C145.567 80.5455 145.32 83.2725 145.158 86.01C145.009 88.749 144.916 91.494 145.054 94.2675C145.837 91.6035 146.389 88.9125 146.886 86.2155C147.369 83.517 147.766 80.8065 148.087 78.0885C148.408 75.3705 148.656 72.642 148.818 69.9045C148.965 67.1655 149.059 64.4205 148.924 61.647C148.144 64.3125 147.594 67.0035 147.096 69.7005Z" fill="#DADADA"/>
    <path d="M12.8794 189.688C10.6155 189.688 8.4482 189.371 6.37756 188.736C4.30693 188.073 2.66422 187.231 1.44945 186.21L3.31302 182.027C4.47258 182.938 5.90822 183.697 7.61995 184.305C9.33167 184.912 11.0848 185.216 12.8794 185.216C14.3978 185.216 15.6264 185.05 16.5651 184.719C17.5038 184.387 18.194 183.946 18.6357 183.393C19.0775 182.814 19.2983 182.165 19.2983 181.447C19.2983 180.564 18.9808 179.86 18.3458 179.335C17.7109 178.783 16.8826 178.355 15.8611 178.051C14.8672 177.72 13.749 177.416 12.5067 177.14C11.2919 176.864 10.0633 176.547 8.82092 176.188C7.60614 175.801 6.488 175.318 5.46648 174.738C4.47258 174.131 3.65813 173.33 3.02313 172.336C2.38814 171.342 2.07064 170.072 2.07064 168.526C2.07064 166.953 2.48477 165.517 3.31302 164.219C4.16888 162.894 5.45268 161.845 7.16441 161.072C8.90374 160.271 11.0986 159.871 13.749 159.871C15.4884 159.871 17.2139 160.092 18.9256 160.534C20.6374 160.975 22.1282 161.61 23.3982 162.439L21.7003 166.621C20.4027 165.848 19.0637 165.282 17.6832 164.923C16.3028 164.537 14.9776 164.344 13.7076 164.344C12.2168 164.344 11.002 164.523 10.0633 164.882C9.15222 165.241 8.47581 165.71 8.03407 166.29C7.61995 166.87 7.41288 167.532 7.41288 168.278C7.41288 169.161 7.71658 169.879 8.32396 170.431C8.95896 170.956 9.77341 171.37 10.7673 171.674C11.7888 171.977 12.9208 172.281 14.1632 172.585C15.4055 172.861 16.6341 173.178 17.8489 173.537C19.0913 173.896 20.2094 174.365 21.2033 174.945C22.2248 175.525 23.0393 176.312 23.6467 177.306C24.2817 178.3 24.5992 179.556 24.5992 181.074C24.5992 182.62 24.1712 184.056 23.3154 185.381C22.4871 186.679 21.2033 187.728 19.464 188.529C17.7247 189.302 15.5298 189.688 12.8794 189.688ZM43.0654 189.274V184.801L42.7755 183.849V176.022C42.7755 174.503 42.3199 173.33 41.4089 172.502C40.4978 171.646 39.1174 171.218 37.2676 171.218C36.0252 171.218 34.7966 171.411 33.5819 171.798C32.3947 172.184 31.387 172.723 30.5587 173.413L28.5295 169.644C29.7167 168.733 31.1247 168.057 32.7536 167.615C34.4101 167.146 36.1218 166.911 37.8888 166.911C41.0914 166.911 43.5623 167.684 45.3017 169.23C47.0686 170.749 47.9521 173.109 47.9521 176.312V189.274H43.0654ZM36.108 189.564C34.4515 189.564 33.0021 189.288 31.7597 188.736C30.5173 188.156 29.551 187.369 28.8608 186.375C28.1982 185.354 27.8669 184.208 27.8669 182.938C27.8669 181.696 28.1568 180.577 28.7366 179.583C29.344 178.59 30.3241 177.803 31.6769 177.223C33.0297 176.643 34.8242 176.353 37.0605 176.353H43.4795V179.791H37.4332C35.6663 179.791 34.4791 180.08 33.8717 180.66C33.2644 181.212 32.9607 181.903 32.9607 182.731C32.9607 183.67 33.3334 184.415 34.0788 184.967C34.8242 185.519 35.8596 185.795 37.1848 185.795C38.4548 185.795 39.5867 185.505 40.5806 184.926C41.6021 184.346 42.3338 183.49 42.7755 182.358L43.6452 185.464C43.1482 186.762 42.2509 187.769 40.9533 188.487C39.6833 189.205 38.0682 189.564 36.108 189.564ZM60.0718 189.274L50.5883 167.16H55.9719L64.1302 186.665H61.4798L69.928 167.16H74.8975L65.414 189.274H60.0718ZM84.811 189.274L75.3275 167.16H80.7112L88.8695 186.665H86.2191L94.6673 167.16H99.6368L90.1533 189.274H84.811ZM117.052 189.274V184.801L116.762 183.849V176.022C116.762 174.503 116.306 173.33 115.395 172.502C114.484 171.646 113.104 171.218 111.254 171.218C110.012 171.218 108.783 171.411 107.568 171.798C106.381 172.184 105.373 172.723 104.545 173.413L102.516 169.644C103.703 168.733 105.111 168.057 106.74 167.615C108.397 167.146 110.108 166.911 111.875 166.911C115.078 166.911 117.549 167.684 119.288 169.23C121.055 170.749 121.939 173.109 121.939 176.312V189.274H117.052ZM110.095 189.564C108.438 189.564 106.989 189.288 105.746 188.736C104.504 188.156 103.537 187.369 102.847 186.375C102.185 185.354 101.853 184.208 101.853 182.938C101.853 181.696 102.143 180.577 102.723 179.583C103.33 178.59 104.311 177.803 105.663 177.223C107.016 176.643 108.811 176.353 111.047 176.353H117.466V179.791H111.42C109.653 179.791 108.466 180.08 107.858 180.66C107.251 181.212 106.947 181.903 106.947 182.731C106.947 183.67 107.32 184.415 108.065 184.967C108.811 185.519 109.846 185.795 111.171 185.795C112.441 185.795 113.573 185.505 114.567 184.926C115.589 184.346 116.32 183.49 116.762 182.358L117.632 185.464C117.135 186.762 116.237 187.769 114.94 188.487C113.67 189.205 112.055 189.564 110.095 189.564Z" fill="#CC720E"/>
    <path d="M3.13335 226.274V207.034H4.80997L13.6053 222.041H12.7258L21.4387 207.034H23.1153V226.274H21.1639V210.085H21.6311L13.6053 223.828H12.6434L4.5626 210.085H5.08483V226.274H3.13335ZM35.1012 226.411C33.5987 226.411 32.2793 226.1 31.1433 225.477C30.0072 224.836 29.1185 223.965 28.4772 222.866C27.8358 221.748 27.5152 220.475 27.5152 219.045C27.5152 217.616 27.8175 216.352 28.4222 215.252C29.0452 214.153 29.8881 213.292 30.9509 212.669C32.032 212.027 33.2413 211.707 34.579 211.707C35.9349 211.707 37.1351 212.018 38.1796 212.641C39.2424 213.246 40.0761 214.107 40.6808 215.225C41.2854 216.324 41.5878 217.598 41.5878 219.045C41.5878 219.137 41.5786 219.238 41.5603 219.348C41.5603 219.439 41.5603 219.54 41.5603 219.65H28.9994V218.193H40.5158L39.7463 218.77C39.7463 217.726 39.5172 216.801 39.0591 215.994C38.6193 215.17 38.0147 214.529 37.2451 214.07C36.4755 213.612 35.5868 213.383 34.579 213.383C33.5895 213.383 32.7008 213.612 31.9129 214.07C31.125 214.529 30.5111 215.17 30.0713 215.994C29.6316 216.819 29.4117 217.763 29.4117 218.825V219.128C29.4117 220.227 29.6499 221.198 30.1263 222.041C30.621 222.866 31.299 223.516 32.1602 223.993C33.0398 224.451 34.0384 224.68 35.1562 224.68C36.0357 224.68 36.8511 224.524 37.6024 224.213C38.372 223.901 39.0316 223.425 39.5813 222.783L40.6808 224.048C40.0394 224.817 39.2332 225.404 38.262 225.807C37.3092 226.21 36.2556 226.411 35.1012 226.411ZM53.0085 226.411C51.7441 226.411 50.6081 226.127 49.6003 225.559C48.5924 224.973 47.7954 224.13 47.209 223.031C46.6227 221.931 46.3295 220.603 46.3295 219.045C46.3295 217.47 46.6227 216.141 47.209 215.06C47.8137 213.961 48.6199 213.127 49.6277 212.559C50.6355 211.991 51.7624 211.707 53.0085 211.707C54.3827 211.707 55.6104 212.018 56.6915 212.641C57.7909 213.246 58.6522 214.098 59.2752 215.197C59.8982 216.297 60.2097 217.579 60.2097 219.045C60.2097 220.493 59.8982 221.776 59.2752 222.893C58.6522 223.993 57.7909 224.854 56.6915 225.477C55.6104 226.1 54.3827 226.411 53.0085 226.411ZM45.5599 226.274V205.88H47.5113V216.104L47.2365 219.018L47.4289 221.931V226.274H45.5599ZM52.871 224.68C53.8972 224.68 54.8133 224.451 55.6196 223.993C56.4258 223.516 57.0672 222.857 57.5436 222.014C58.02 221.153 58.2582 220.163 58.2582 219.045C58.2582 217.909 58.02 216.92 57.5436 216.077C57.0672 215.234 56.4258 214.584 55.6196 214.125C54.8133 213.649 53.8972 213.411 52.871 213.411C51.8449 213.411 50.9196 213.649 50.095 214.125C49.2887 214.584 48.6474 215.234 48.171 216.077C47.7129 216.92 47.4839 217.909 47.4839 219.045C47.4839 220.163 47.7129 221.153 48.171 222.014C48.6474 222.857 49.2887 223.516 50.095 223.993C50.9196 224.451 51.8449 224.68 52.871 224.68ZM70.3171 226.411C68.8145 226.411 67.4952 226.1 66.3591 225.477C65.2231 224.836 64.3344 223.965 63.693 222.866C63.0517 221.748 62.731 220.475 62.731 219.045C62.731 217.616 63.0334 216.352 63.6381 215.252C64.2611 214.153 65.104 213.292 66.1667 212.669C67.2478 212.027 68.4572 211.707 69.7948 211.707C71.1508 211.707 72.351 212.018 73.3954 212.641C74.4582 213.246 75.2919 214.107 75.8966 215.225C76.5013 216.324 76.8036 217.598 76.8036 219.045C76.8036 219.137 76.7945 219.238 76.7762 219.348C76.7762 219.439 76.7762 219.54 76.7762 219.65H64.2153V218.193H75.7317L74.9621 218.77C74.9621 217.726 74.7331 216.801 74.275 215.994C73.8352 215.17 73.2305 214.529 72.4609 214.07C71.6913 213.612 70.8026 213.383 69.7948 213.383C68.8053 213.383 67.9166 213.612 67.1287 214.07C66.3408 214.529 65.727 215.17 65.2872 215.994C64.8474 216.819 64.6275 217.763 64.6275 218.825V219.128C64.6275 220.227 64.8658 221.198 65.3422 222.041C65.8369 222.866 66.5149 223.516 67.3761 223.993C68.2556 224.451 69.2543 224.68 70.372 224.68C71.2516 224.68 72.067 224.524 72.8182 224.213C73.5878 223.901 74.2475 223.425 74.7972 222.783L75.8966 224.048C75.2553 224.817 74.449 225.404 73.4779 225.807C72.5251 226.21 71.4714 226.411 70.3171 226.411ZM80.7757 226.274V205.88H82.7272V226.274H80.7757ZM104.201 226.439C102.735 226.439 101.379 226.201 100.133 225.724C98.9054 225.23 97.8335 224.542 96.9173 223.663C96.0194 222.783 95.3139 221.748 94.8009 220.557C94.3061 219.366 94.0588 218.065 94.0588 216.654C94.0588 215.243 94.3061 213.942 94.8009 212.751C95.3139 211.56 96.0286 210.525 96.9448 209.645C97.8609 208.766 98.9329 208.088 100.161 207.611C101.407 207.117 102.763 206.869 104.228 206.869C105.694 206.869 107.032 207.098 108.241 207.556C109.469 208.014 110.513 208.711 111.375 209.645L110.11 210.937C109.304 210.131 108.415 209.554 107.444 209.206C106.473 208.857 105.429 208.683 104.311 208.683C103.12 208.683 102.02 208.885 101.013 209.288C100.023 209.673 99.1528 210.232 98.4015 210.965C97.6685 211.679 97.0913 212.522 96.6699 213.493C96.2668 214.446 96.0652 215.5 96.0652 216.654C96.0652 217.79 96.2668 218.844 96.6699 219.815C97.0913 220.786 97.6685 221.638 98.4015 222.371C99.1528 223.086 100.023 223.645 101.013 224.048C102.02 224.433 103.111 224.625 104.283 224.625C105.383 224.625 106.418 224.46 107.389 224.13C108.379 223.8 109.286 223.241 110.11 222.454L111.265 223.993C110.349 224.799 109.277 225.413 108.049 225.834C106.821 226.237 105.539 226.439 104.201 226.439ZM109.313 223.745V216.654H111.265V223.993L109.313 223.745ZM116.609 226.274V211.844H118.478V215.775L118.286 215.087C118.689 213.988 119.367 213.154 120.319 212.586C121.272 212 122.454 211.707 123.865 211.707V213.603C123.792 213.603 123.719 213.603 123.645 213.603C123.572 213.585 123.499 213.576 123.425 213.576C121.904 213.576 120.713 214.043 119.852 214.977C118.991 215.894 118.56 217.204 118.56 218.908V226.274H116.609ZM133.174 226.411C131.781 226.411 130.526 226.1 129.408 225.477C128.309 224.836 127.438 223.965 126.797 222.866C126.156 221.748 125.835 220.475 125.835 219.045C125.835 217.598 126.156 216.324 126.797 215.225C127.438 214.125 128.309 213.264 129.408 212.641C130.508 212.018 131.763 211.707 133.174 211.707C134.603 211.707 135.867 212.018 136.967 212.641C138.084 213.264 138.955 214.125 139.578 215.225C140.219 216.324 140.54 217.598 140.54 219.045C140.54 220.475 140.219 221.748 139.578 222.866C138.955 223.965 138.084 224.836 136.967 225.477C135.849 226.1 134.585 226.411 133.174 226.411ZM133.174 224.68C134.218 224.68 135.144 224.451 135.95 223.993C136.756 223.516 137.388 222.857 137.846 222.014C138.323 221.153 138.561 220.163 138.561 219.045C138.561 217.909 138.323 216.92 137.846 216.077C137.388 215.234 136.756 214.584 135.95 214.125C135.144 213.649 134.227 213.411 133.201 213.411C132.175 213.411 131.259 213.649 130.453 214.125C129.646 214.584 129.005 215.234 128.529 216.077C128.052 216.92 127.814 217.909 127.814 219.045C127.814 220.163 128.052 221.153 128.529 222.014C129.005 222.857 129.646 223.516 130.453 223.993C131.259 224.451 132.166 224.68 133.174 224.68ZM150.488 226.411C149.261 226.411 148.189 226.182 147.273 225.724C146.356 225.266 145.642 224.579 145.129 223.663C144.634 222.747 144.387 221.602 144.387 220.227V211.844H146.338V220.007C146.338 221.547 146.714 222.71 147.465 223.498C148.235 224.268 149.306 224.652 150.681 224.652C151.689 224.652 152.559 224.451 153.292 224.048C154.043 223.626 154.611 223.022 154.996 222.234C155.399 221.446 155.601 220.502 155.601 219.403V211.844H157.552V226.274H155.683V222.316L155.985 223.031C155.527 224.094 154.813 224.927 153.842 225.532C152.889 226.118 151.771 226.411 150.488 226.411ZM170.439 226.411C169.193 226.411 168.066 226.127 167.059 225.559C166.051 224.973 165.245 224.139 164.64 223.058C164.054 221.959 163.76 220.621 163.76 219.045C163.76 217.47 164.054 216.141 164.64 215.06C165.226 213.961 166.023 213.127 167.031 212.559C168.039 211.991 169.175 211.707 170.439 211.707C171.814 211.707 173.041 212.018 174.122 212.641C175.222 213.246 176.083 214.107 176.706 215.225C177.329 216.324 177.641 217.598 177.641 219.045C177.641 220.511 177.329 221.794 176.706 222.893C176.083 223.993 175.222 224.854 174.122 225.477C173.041 226.1 171.814 226.411 170.439 226.411ZM162.991 231.606V211.844H164.86V216.187L164.667 219.073L164.942 221.986V231.606H162.991ZM170.302 224.68C171.328 224.68 172.244 224.451 173.051 223.993C173.857 223.516 174.498 222.857 174.975 222.014C175.451 221.153 175.689 220.163 175.689 219.045C175.689 217.928 175.451 216.947 174.975 216.104C174.498 215.262 173.857 214.602 173.051 214.125C172.244 213.649 171.328 213.411 170.302 213.411C169.276 213.411 168.35 213.649 167.526 214.125C166.72 214.602 166.078 215.262 165.602 216.104C165.144 216.947 164.915 217.928 164.915 219.045C164.915 220.163 165.144 221.153 165.602 222.014C166.078 222.857 166.72 223.516 167.526 223.993C168.35 224.451 169.276 224.68 170.302 224.68Z" fill="#535151"/>
</svg>
