<svg width="21" height="21" viewBox="0 0 21 21" fill="none" xmlns="http://www.w3.org/2000/svg">
<path d="M2.01252 9.00194C4.21739 13.8206 8.14068 17.6518 13.0184 19.7288L13.8003 20.0783C15.5891 20.8781 17.692 20.2705 18.7831 18.6386L19.8048 17.1104C20.137 16.6135 20.0359 15.9443 19.5718 15.5686L16.1066 12.7635C15.5976 12.3515 14.8492 12.4474 14.4599 12.9746C13.8396 13.8145 12.695 14.1034 11.8271 13.5231C10.2894 12.495 8.96837 11.169 7.94434 9.62559C7.36686 8.75524 7.65544 7.61114 8.4936 6.98785C9.019 6.59715 9.11464 5.84614 8.70403 5.33542L5.90841 1.85817C5.53409 1.39258 4.86736 1.29103 4.37221 1.62418L2.83874 2.65594C1.2023 3.75698 0.60014 5.88453 1.41555 7.68431L2.01163 8.99998L2.01252 9.00194Z" fill="#C96623" stroke="#C96623" stroke-linejoin="round"/>
</svg>
